#!OML:ASF F:\VICON\USERDATA\INSTALL\rory3\rory3.ASF
:FULLY-SPECIFIED
:DEGREES
50
root -1.01417 16.2834 -19.1052 2.59205 3.51984 2.53748
lowerback 12.65 -0.639163 -7.33162
upperback -4.92512 -1.94662 1.94424
thorax -12.2914 -0.234672 6.76046
lowerneck -8.99246 -5.42121 -4.04014
upperneck 17.0043 -7.52692 4.01553
head 6.98152 -3.55077 1.29158
rclavicle 1.50331e-014 -2.38542e-015
rhumerus -51.2068 -21.6219 -63.9397
rradius 13.7555
rwrist 16.2611
rhand -6.51044 17.9149
rfingers 7.12502
rthumb 19.3416 -11.1432
lclavicle 1.50331e-014 -2.38542e-015
lhumerus -39.8024 12.7248 79.9509
lradius 16.9939
lwrist -7.97045
lhand -5.95746 17.4658
lfingers 7.12502
lthumb 19.8732 46.4698
rfemur -23.5268 13.9308 20.201
rtibia 31.9539
rfoot -8.59332 -9.78466
rtoes -1.13971
lfemur 0.744497 -1.85811 -22.6941
ltibia 46.4323
lfoot 10.5937 -4.2154
ltoes -6.28807
51
root -1.03965 16.2988 -18.9823 2.56812 3.21082 2.1189
lowerback 12.5372 -0.462123 -7.03382
upperback -4.90498 -1.63731 2.01498
thorax -12.255 -0.111126 6.59559
lowerneck -8.74501 -5.51823 -4.00295
upperneck 16.8136 -7.68043 4.09858
head 6.88506 -3.62118 1.30646
rclavicle 2.1096e-014 -4.77083e-015
rhumerus -50.7451 -21.7082 -64.2279
rradius 13.9165
rwrist 16.0392
rhand -6.56786 18.0535
rfingers 7.12502
rthumb 19.2864 -11.0102
lclavicle 2.1096e-014 -4.77083e-015
lhumerus -40.1138 12.363 80.0851
lradius 16.9978
lwrist -7.77464
lhand -5.77618 17.6865
lfingers 7.12502
lthumb 20.0475 46.6723
rfemur -22.7307 13.9272 20.9252
rtibia 31.3624
rfoot -8.5795 -9.50276
rtoes -1.83604
lfemur -1.0785 -1.10677 -21.945
ltibia 49.3008
lfoot 13.065 -3.94371
ltoes -1.75164
52
root -1.0676 16.3094 -18.8692 2.46071 3.23576 1.6402
lowerback 12.6134 -0.410974 -6.69495
upperback -4.79905 -1.49686 2.13277
thorax -12.203 -0.0711819 6.50204
lowerneck -8.97973 -5.62297 -4.02171
upperneck 16.8066 -7.84629 4.28014
head 6.93956 -3.68289 1.34507
rclavicle 8.07563e-015 3.97569e-015
rhumerus -49.8216 -21.0657 -65.4193
rradius 14.3324
rwrist 14.6092
rhand -6.73326 17.985
rfingers 7.12502
rthumb 19.1274 -11.0944
lclavicle 8.07563e-015 3.97569e-015
lhumerus -40.3149 12.0441 80.3152
lradius 17.338
lwrist -7.52679
lhand -5.17009 18.6458
lfingers 7.12502
lthumb 20.63 47.5695
rfemur -21.7779 13.9623 21.7414
rtibia 30.7031
rfoot -8.71643 -9.58956
rtoes -2.53782
lfemur -2.82848 -0.650802 -21.0995
ltibia 52.1375
lfoot 14.9872 -3.51484
ltoes -2.93858
53
root -1.09349 16.3207 -18.7496 2.30727 3.69357 1.40333
lowerback 12.8259 -0.491172 -6.52619
upperback -4.75756 -1.57997 2.20214
thorax -12.2701 -0.117896 6.50908
lowerneck -9.2792 -5.66807 -4.06517
upperneck 17.01 -7.9212 4.38638
head 7.06755 -3.70494 1.3682
rclavicle 5.50385e-015 1.63003e-014
rhumerus -49.0347 -20.0971 -66.6602
rradius 14.8675
rwrist 12.8896
rhand -6.8318 18.2115
rfingers 7.12502
rthumb 19.0326 -10.8773
lclavicle 5.50385e-015 1.63003e-014
lhumerus -40.5631 11.743 80.5683
lradius 17.4427
lwrist -7.3547
lhand -4.88077 19.387
lfingers 7.12502
lthumb 20.908 48.2803
rfemur -20.6444 13.9013 22.2933
rtibia 30.0163
rfoot -9.30433 -9.86585
rtoes -2.33332
lfemur -4.45612 -0.608687 -20.5507
ltibia 54.8467
lfoot 16.1283 -2.88692
ltoes -5.57584
54
root -1.11203 16.3384 -18.6268 2.21922 3.85733 1.2305
lowerback 12.9362 -0.522576 -6.39123
upperback -4.79431 -1.59882 2.26368
thorax -12.3764 -0.12787 6.51124
lowerneck -9.17531 -5.66823 -4.05593
upperneck 17.1002 -7.90934 4.27028
head 7.07266 -3.7093 1.33286
rclavicle 7.33018e-015 -1.31198e-014
rhumerus -48.4136 -19.3671 -67.4507
rradius 15.2688
rwrist 11.8346
rhand -6.9094 18.4753
rfingers 7.12502
rthumb 18.958 -10.6208
lclavicle 7.33018e-015 -1.31198e-014
lhumerus -40.9693 11.7114 80.5971
lradius 17.1783
lwrist -7.65271
lhand -4.97227 18.9169
lfingers 7.12502
lthumb 20.8201 47.8199
rfemur -19.5996 13.7656 22.7428
rtibia 29.3461
rfoot -9.64926 -9.85547
rtoes -2.45462
lfemur -6.15639 -0.443477 -20.1869
ltibia 57.3893
lfoot 16.6681 -1.31978
ltoes 1.66879
55
root -1.12627 16.3546 -18.4986 2.13231 3.59922 1.08183
lowerback 12.7401 -0.418671 -6.26637
upperback -4.74232 -1.42072 2.27889
thorax -12.2274 -0.0618345 6.40633
lowerneck -8.98936 -5.67548 -4.05058
upperneck 17.0903 -7.92103 4.24551
head 7.03592 -3.71997 1.3285
rclavicle -6.31141e-015 -1.19271e-015
rhumerus -47.7865 -19.4145 -67.6803
rradius 15.4465
rwrist 11.7044
rhand -6.98576 18.5002
rfingers 7.12502
rthumb 18.8845 -10.6031
lclavicle -6.31141e-015 -1.19271e-015
lhumerus -41.2984 11.3974 80.8004
lradius 17.0829
lwrist -7.60755
lhand -4.99684 18.5361
lfingers 7.12502
lthumb 20.7965 47.4417
rfemur -18.6297 13.6452 23.1529
rtibia 28.7233
rfoot -9.42492 -9.64558
rtoes -2.30517
lfemur -7.82515 0.151209 -19.9161
ltibia 59.7404
lfoot 16.6735 -0.524552
ltoes 7.19852
56
root -1.14433 16.3627 -18.3781 2.01212 3.12203 0.935882
lowerback 12.6996 -0.191549 -6.26473
upperback -4.70586 -1.10781 2.30354
thorax -12.2112 0.0857733 6.36061
lowerneck -8.81434 -5.71516 -4.02847
upperneck 17.0187 -7.97666 4.22145
head 6.98255 -3.75106 1.31782
rclavicle -5.98839e-015 9.93923e-015
rhumerus -47.0985 -18.9956 -68.3271
rradius 15.8182
rwrist 10.9341
rhand -7.0866 18.9062
rfingers 7.12502
rthumb 18.7875 -10.2065
lclavicle -5.98839e-015 9.93923e-015
lhumerus -41.5372 11.0378 81.0686
lradius 17.1527
lwrist -7.13877
lhand -4.85915 18.7205
lfingers 7.12502
lthumb 20.9287 47.6115
rfemur -17.7579 13.7331 23.5556
rtibia 28.1541
rfoot -9.42727 -9.33746
rtoes -2.17379
lfemur -9.32421 0.995182 -19.6603
ltibia 61.931
lfoot 15.9421 -0.359269
ltoes 8.61999
57
root -1.16153 16.3691 -18.2666 1.95598 2.71779 0.832512
lowerback 12.8157 0.0093428 -6.28385
upperback -4.70721 -0.844723 2.32626
thorax -12.3256 0.218663 6.34228
lowerneck -8.78353 -5.76585 -4.06197
upperneck 17.0508 -8.03983 4.2014
head 6.9909 -3.78525 1.31137
rclavicle 1.59028e-015 -8.74653e-015
rhumerus -46.374 -18.3069 -69.1842
rradius 16.2883
rwrist 9.84764
rhand -7.42042 19.4098
rfingers 7.12502
rthumb 18.4664 -9.7337
lclavicle 1.59028e-015 -8.74653e-015
lhumerus -41.7459 10.4937 81.5291
lradius 17.3643
lwrist -6.61389
lhand -4.54307 18.8085
lfingers 7.12502
lthumb 21.2324 47.6656
rfemur -17.0236 13.9841 23.8692
rtibia 27.7022
rfoot -9.85449 -9.03971
rtoes -2.22753
lfemur -10.8191 1.78672 -19.484
ltibia 63.9798
lfoot 14.6219 -0.458699
ltoes 8.35337
58
root -1.17505 16.3685 -18.1525 1.88855 2.51993 0.698069
lowerback 12.8505 0.156353 -6.17061
upperback -4.66122 -0.62708 2.32666
thorax -12.3281 0.311477 6.2278
lowerneck -9.02231 -5.75681 -4.16672
upperneck 17.439 -8.06224 4.41751
head 7.1732 -3.77551 1.38438
rclavicle 1.83876e-015 7.15625e-015
rhumerus -45.587 -18.0354 -69.7943
rradius 16.6179
rwrist 9.14292
rhand -7.92743 19.4021
rfingers 7.12502
rthumb 17.9787 -9.78691
lclavicle 1.83876e-015 7.15625e-015
lhumerus -41.9615 9.88471 82.0218
lradius 17.5851
lwrist -6.42647
lhand -4.61512 18.5678
lfingers 7.12502
lthumb 21.1632 47.4327
rfemur -16.242 14.1463 24.2267
rtibia 27.2872
rfoot -10.0608 -8.86255
rtoes -1.22749
lfemur -12.2829 2.39397 -19.2945
ltibia 65.9198
lfoot 13.0816 -0.653699
ltoes 7.47556
59
root -1.19126 16.3697 -18.0411 1.87928 2.2628 0.694125
lowerback 12.903 0.35772 -6.12424
upperback -4.63242 -0.364319 2.19938
thorax -12.3678 0.426251 5.99848
lowerneck -9.39242 -5.74046 -4.10099
upperneck 17.7725 -8.11357 4.71958
head 7.35979 -3.75844 1.45213
rclavicle 1.37907e-015 -1.59028e-014
rhumerus -44.8221 -18.3211 -70.1404
rradius 16.8685
rwrist 8.94708
rhand -8.14109 19.2302
rfingers 7.12502
rthumb 17.7731 -9.97758
lclavicle 1.37907e-015 -1.59028e-014
lhumerus -42.0565 9.2634 82.3008
lradius 17.6765
lwrist -6.34309
lhand -4.53173 18.4287
lfingers 7.12502
lthumb 21.2433 47.2846
rfemur -15.5989 14.142 24.437
rtibia 26.9344
rfoot -10.1169 -8.53592
rtoes -0.566891
lfemur -13.9313 2.99437 -19.2831
ltibia 67.6695
lfoot 11.5764 -0.777061
ltoes 5.68104
60
root -1.20608 16.3829 -17.9289 1.82865 2.02869 0.685305
lowerback 13.0917 0.542891 -6.08823
upperback -4.64844 -0.12905 2.11839
thorax -12.5363 0.537854 5.83687
lowerneck -9.36905 -5.80065 -4.10084
upperneck 17.7822 -8.21234 4.79578
head 7.36688 -3.79914 1.46737
rclavicle 6.69656e-015 -7.95139e-016
rhumerus -44.127 -18.0768 -70.7444
rradius 17.4631
rwrist 8.29249
rhand -8.15478 18.7831
rfingers 7.12502
rthumb 17.7599 -10.4259
lclavicle 6.69656e-015 -7.95139e-016
lhumerus -42.2815 8.7067 82.6558
lradius 17.8963
lwrist -5.76558
lhand -4.50469 18.431
lfingers 7.12502
lthumb 21.2692 47.284
rfemur -14.9104 14.0809 24.6504
rtibia 26.6315
rfoot -10.259 -8.267
rtoes -0.546037
lfemur -15.679 3.56728 -19.3171
ltibia 69.1153
lfoot 9.67282 -1.20511
ltoes -1.19725
